<?xml version="1.0" standalone="no"?>
<!DOCTYPE svg PUBLIC "-//W3C//DTD SVG 20010904//EN"
 "http://www.w3.org/TR/2001/REC-SVG-20010904/DTD/svg10.dtd">
<svg version="1.0" xmlns="http://www.w3.org/2000/svg"
 width="70.000000pt" height="70.000000pt" viewBox="0 0 70.000000 70.000000"
 preserveAspectRatio="xMidYMid meet">
<metadata>
Created by potrace 1.11, written by Peter Selinger 2001-2013
</metadata>
<g transform="translate(0.000000,70.000000) scale(0.100000,-0.100000)"
fill="#000000" stroke="none">
<path d="M0 350 l0 -350 350 0 350 0 0 350 0 350 -350 0 -350 0 0 -350z m210
105 c0 -11 -12 -15 -50 -15 l-50 0 0 -40 0 -40 45 0 c33 0 45 -4 45 -15 0 -11
-12 -15 -45 -15 l-45 0 0 -60 c0 -53 -2 -60 -20 -60 -19 0 -20 7 -20 130 l0
130 70 0 c56 0 70 -3 70 -15z m218 3 c-3 -7 -21 -14 -41 -16 l-37 -3 0 -115
c0 -107 -1 -114 -20 -114 -19 0 -20 7 -20 115 l0 115 -35 0 c-24 0 -35 5 -35
15 0 12 17 15 96 15 72 0 95 -3 92 -12z m200 0 c-3 -7 -21 -14 -41 -16 l-37
-3 0 -115 c0 -107 -1 -114 -20 -114 -19 0 -20 7 -20 115 l0 115 -35 0 c-24 0
-35 5 -35 15 0 12 17 15 96 15 72 0 95 -3 92 -12z"/>
</g>
</svg>
